<svg xmlns="http://www.w3.org/2000/svg" xmlns:xlink="http://www.w3.org/1999/xlink" width="45" height="48" viewBox="0 0 45 48">
  <defs>
    <clipPath id="clip-path">
      <rect id="Rectangle_25" data-name="Rectangle 25" width="31" height="31" rx="5" transform="translate(48 477.461)" fill="#e1b72a"/>
    </clipPath>
    <filter id="Rectangle_19" x="11" y="14" width="34" height="34" filterUnits="userSpaceOnUse">
      <feOffset dy="3" input="SourceAlpha"/>
      <feGaussianBlur stdDeviation="3" result="blur"/>
      <feFlood flood-opacity="0.161"/>
      <feComposite operator="in" in2="blur"/>
      <feComposite in="SourceGraphic"/>
    </filter>
  </defs>
  <g id="add_client_c" data-name="add client c" transform="translate(-42 -401)">
    <rect id="Rectangle_18" data-name="Rectangle 18" width="31" height="31" rx="5" transform="translate(42 401)" fill="#e1b72a"/>
    <g id="Group_18" data-name="Group 18" transform="translate(-6 -76.461)">
      <g id="Mask_Group_3" data-name="Mask Group 3" clip-path="url(#clip-path)">
        <g id="Path_4" data-name="Path 4" transform="translate(51 496.702)" fill="none">
          <path d="M12.834,0c7.6,0,10.7,7.93,10.7,13.759.1-.1-21.786-.1-21.786,0C1.75,7.447,5.235,0,12.834,0Z" stroke="none"/>
          <path d="M 12.83401489257813 1.70000171661377 C 11.32364559173584 1.70000171661377 9.945955276489258 2.049382209777832 8.739225387573242 2.738442420959473 C 7.630266189575195 3.371662139892578 6.656005859375 4.29238224029541 5.843515396118164 5.475022315979004 C 4.613361358642578 7.265583515167236 3.807462692260742 9.583156585693359 3.544170379638672 12.01780891418457 C 4.001935958862305 12.0133695602417 4.541244506835938 12.00933647155762 5.157566070556641 12.00574207305908 C 7.14344596862793 11.99417209625244 9.814515113830566 11.98780250549316 12.67873573303223 11.98780250549316 C 15.51427555084229 11.98780250549316 18.16008567810059 11.99406242370605 20.12876510620117 12.00543212890625 C 20.74356651306152 12.00898170471191 21.28177833557129 12.01297664642334 21.73888778686523 12.01737403869629 C 21.48128128051758 9.675043106079102 20.72178649902344 7.368058204650879 19.60016632080078 5.605972290039063 C 17.95039558410645 3.014162063598633 15.67393493652344 1.70000171661377 12.83401489257813 1.70000171661377 M 12.83401489257813 1.9073486328125e-06 C 20.43269157409668 1.9073486328125e-06 23.53543663024902 7.928877353668213 23.53581428527832 13.75821781158447 C 23.48917198181152 13.71126747131348 18.08982849121094 13.68779945373535 12.67873668670654 13.68779945373535 C 7.2203369140625 13.68779945373535 1.749996185302734 13.7116870880127 1.749996185302734 13.75946235656738 C 1.749996185302734 7.446532249450684 5.234874725341797 1.9073486328125e-06 12.83401489257813 1.9073486328125e-06 Z M 23.53581428527832 13.75821781158447 C 23.53622245788574 13.75862884521484 23.53623008728027 13.75904846191406 23.53581619262695 13.75946235656738 C 23.53581619262695 13.75910663604736 23.53581428527832 13.75857353210449 23.53581428527832 13.75821781158447 Z" stroke="none" fill="#fff"/>
        </g>
      </g>
      <g id="Ellipse_4" data-name="Ellipse 4" transform="translate(58 486.461)" fill="none" stroke="#fff" stroke-width="1.7">
        <circle cx="6" cy="6" r="6" stroke="none"/>
        <circle cx="6" cy="6" r="5.15" fill="none"/>
      </g>
    </g>
    <g transform="matrix(1, 0, 0, 1, 42, 401)" filter="url(#Rectangle_19)">
      <rect id="Rectangle_19-2" data-name="Rectangle 19" width="16" height="16" rx="3" transform="translate(20 20)" fill="#e1b72a"/>
    </g>
    <g id="Group_6" data-name="Group 6" transform="translate(66 423.013)">
      <line id="Line_11" data-name="Line 11" y2="9.039" transform="translate(4.268 1)" fill="none" stroke="#fff" stroke-linecap="round" stroke-width="1.5"/>
      <line id="Line_12" data-name="Line 12" y2="8.536" transform="translate(8.536 5.519) rotate(90)" fill="none" stroke="#fff" stroke-linecap="round" stroke-width="1.5"/>
    </g>
  </g>
</svg>
