<svg xmlns="http://www.w3.org/2000/svg" width="36" height="36" viewBox="0 0 36 36">
  <g id="add_client" data-name="add client" transform="translate(-42 -401)">
    <g id="Rectangle_18" data-name="Rectangle 18" transform="translate(42 401)" fill="none" stroke="#717171" stroke-width="2">
      <rect width="31" height="31" rx="5" stroke="none"/>
      <rect x="1" y="1" width="29" height="29" rx="4" fill="none"/>
    </g>
    <g id="Group_18" data-name="Group 18" transform="translate(-6 -76.461)">
      <g id="Path_4" data-name="Path 4" transform="translate(51 494.702)" fill="#fff">
        <path d="M 22.93276596069336 14.35724258422852 L 22.93395805358887 13.65596485137939 L 23.5363826751709 13.40759086608887 L 24.38478660583496 13.75903606414795 L 22.93276596069336 14.35724258422852 Z M 2.623008489608765 12.87903022766113 C 2.77501368522644 9.964529991149902 3.674425363540649 7.131207942962646 5.142925262451172 4.993701934814453 C 6.441625118255615 3.103362083435059 8.830155372619629 0.850002110004425 12.83401489257813 0.850002110004425 C 14.47359561920166 0.850002110004425 15.96512508392334 1.255222082138062 17.26716613769531 2.054402112960815 C 18.44320487976074 2.776242017745972 19.46939468383789 3.817592144012451 20.31721496582031 5.149542331695557 C 21.65859603881836 7.256860256195068 22.51112937927246 10.09133148193359 22.66181755065918 12.87851524353027 C 22.63937568664551 12.87818241119385 22.616455078125 12.87784481048584 22.59318542480469 12.87750244140625 C 22.01400566101074 12.86896228790283 21.18320465087891 12.86153221130371 20.12385559082031 12.85541248321533 C 18.15679550170898 12.8440523147583 15.51273536682129 12.83780193328857 12.67874526977539 12.83780193328857 C 9.816265106201172 12.83780193328857 7.146955490112305 12.84417247772217 5.162525177001953 12.85573196411133 C 4.09327507019043 12.86196231842041 3.257125377655029 12.86952209472656 2.677305221557617 12.87820243835449 C 2.658961057662964 12.87847709655762 2.640854597091675 12.87875270843506 2.623008489608765 12.87903022766113 Z" stroke="none"/>
        <path d="M 12.83401489257813 1.70000171661377 C 11.32364559173584 1.70000171661377 9.945955276489258 2.049382209777832 8.739225387573242 2.738442420959473 C 7.630266189575195 3.371662139892578 6.656005859375 4.29238224029541 5.843515396118164 5.475022315979004 C 4.613361358642578 7.265583515167236 3.807462692260742 9.583156585693359 3.544170379638672 12.01780891418457 C 4.001935958862305 12.0133695602417 4.541244506835938 12.00933647155762 5.157566070556641 12.00574207305908 C 7.14344596862793 11.99417209625244 9.814515113830566 11.98780250549316 12.67873573303223 11.98780250549316 C 15.51427555084229 11.98780250549316 18.16008567810059 11.99406242370605 20.12876510620117 12.00543212890625 C 20.74356651306152 12.00898170471191 21.28177833557129 12.01297664642334 21.73888778686523 12.01737403869629 C 21.48128128051758 9.675043106079102 20.72178649902344 7.368058204650879 19.60016632080078 5.605972290039063 C 17.95039558410645 3.014162063598633 15.67393493652344 1.70000171661377 12.83401489257813 1.70000171661377 M 12.83401489257813 1.9073486328125e-06 C 20.43269157409668 1.9073486328125e-06 23.53543663024902 7.928877353668213 23.53581428527832 13.75821781158447 C 23.48917198181152 13.71126747131348 18.08982849121094 13.68779945373535 12.67873668670654 13.68779945373535 C 7.2203369140625 13.68779945373535 1.749996185302734 13.7116870880127 1.749996185302734 13.75946235656738 C 1.749996185302734 7.446532249450684 5.234874725341797 1.9073486328125e-06 12.83401489257813 1.9073486328125e-06 Z M 23.53581428527832 13.75821781158447 C 23.53622245788574 13.75862884521484 23.53623008728027 13.75904846191406 23.53581619262695 13.75946235656738 C 23.53581619262695 13.75910663604736 23.53581428527832 13.75857353210449 23.53581428527832 13.75821781158447 Z" stroke="none" fill="#707070"/>
      </g>
      <g id="Ellipse_4" data-name="Ellipse 4" transform="translate(58 484.461)" fill="#fff" stroke="#707070" stroke-width="1.7">
        <circle cx="6" cy="6" r="6" stroke="none"/>
        <circle cx="6" cy="6" r="5.15" fill="none"/>
      </g>
    </g>
    <rect id="Rectangle_19" data-name="Rectangle 19" width="16" height="16" rx="3" transform="translate(62 421)" fill="#959595"/>
    <g id="Group_6" data-name="Group 6" transform="translate(66 423.013)">
      <line id="Line_11" data-name="Line 11" y2="9.039" transform="translate(4.268 1)" fill="none" stroke="#fff" stroke-linecap="round" stroke-width="1.5"/>
      <line id="Line_12" data-name="Line 12" y2="8.536" transform="translate(8.536 5.519) rotate(90)" fill="none" stroke="#fff" stroke-linecap="round" stroke-width="1.5"/>
    </g>
  </g>
</svg>
