<svg xmlns="http://www.w3.org/2000/svg" xmlns:xlink="http://www.w3.org/1999/xlink" width="31" height="31" viewBox="0 0 31 31">
  <defs>
    <clipPath id="clip-path">
      <rect id="Rectangle_22" data-name="Rectangle 22" width="31" height="31" rx="5" transform="translate(42 484)" fill="none" stroke="#717171" stroke-width="2"/>
    </clipPath>
  </defs>
  <g id="clients_list_h" data-name="clients list h" transform="translate(-42 -484)">
    <g id="Mask_Group_2" data-name="Mask Group 2" clip-path="url(#clip-path)">
      <g id="Group_19" data-name="Group 19" transform="translate(3 11.514)">
        <g id="Path_4" data-name="Path 4" transform="translate(51 492.591)" fill="#fff">
          <path d="M 18.39674377441406 11.49265956878662 L 18.39787292480469 10.79134273529053 L 19.00052452087402 10.54285049438477 L 19.8487606048584 10.89416885375977 L 18.39674377441406 11.49265956878662 Z M 2.629143953323364 10.0177640914917 C 2.775678634643555 7.809008598327637 3.469331741333008 5.674249172210693 4.582353591918945 4.054169654846191 C 5.586583614349365 2.592439413070679 7.432963371276855 0.8499994874000549 10.52619361877441 0.8499994874000549 C 11.79122352600098 0.8499994874000549 12.94105339050293 1.162049412727356 13.94372367858887 1.777479410171509 C 14.85181331634521 2.33484935760498 15.64525318145752 3.140609502792358 16.30200386047363 4.172369480133057 C 17.31820106506348 5.768823623657227 17.97472953796387 7.901553153991699 18.11946296691895 10.01737976074219 C 17.66987991333008 10.01140880584717 17.05860900878906 10.00617790222168 16.29922294616699 10.00178909301758 C 14.74139308929443 9.992789268493652 12.64749336242676 9.987839698791504 10.40324306488037 9.987839698791504 C 8.136433601379395 9.987839698791504 6.022543430328369 9.992879867553711 4.450963497161865 10.00203990936279 C 3.690567016601563 10.00646495819092 3.078843832015991 10.01175212860107 2.629143953323364 10.0177640914917 Z" stroke="none"/>
          <path d="M 10.52619361877441 1.699999809265137 C 8.339643478393555 1.699999809265137 6.575563430786133 2.653999328613281 5.282943725585938 4.535489559173584 C 4.407876968383789 5.809206485748291 3.813180923461914 7.433938980102539 3.571432113647461 9.158040046691895 C 3.836521148681641 9.155900001525879 4.128391265869141 9.153900146484375 4.446002960205078 9.15204906463623 C 6.019253730773926 9.142879486083984 8.134903907775879 9.137829780578613 10.40324306488037 9.137829780578613 C 12.64892387390137 9.137829780578613 14.74457359313965 9.142789840698242 16.30413436889648 9.151799201965332 C 16.62053489685059 9.153626441955566 16.91132926940918 9.15560245513916 17.17564582824707 9.157718658447266 C 16.94068336486816 7.494503498077393 16.38203239440918 5.88102912902832 15.5849437713623 4.628799438476563 C 14.34789371490479 2.685389518737793 12.64588356018066 1.699999809265137 10.52619361877441 1.699999809265137 M 10.52619361877441 -9.5367431640625e-07 C 16.54272651672363 -9.5367431640625e-07 18.99945259094238 6.27798318862915 18.99975395202637 10.89359474182129 C 18.96282005310059 10.85641765594482 14.68768310546875 10.83783435821533 10.40324687957764 10.83783435821533 C 6.081353187561035 10.83783435821533 1.750003814697266 10.85674953460693 1.750003814697266 10.89457988739014 C 1.750003814697266 5.896079540252686 4.509283065795898 -9.5367431640625e-07 10.52619361877441 -9.5367431640625e-07 Z M 18.99975395202637 10.89359474182129 C 19.00007629394531 10.89391899108887 19.00008201599121 10.89425182342529 18.99975395202637 10.89457988739014 C 18.99975395202637 10.89429759979248 18.99975395202637 10.89387607574463 18.99975395202637 10.89359474182129 Z" stroke="none" fill="#e1b72a"/>
        </g>
        <g id="Ellipse_4" data-name="Ellipse 4" transform="translate(57 484.486)" fill="#fff" stroke="#e1b72a" stroke-width="1.7">
          <circle cx="4.5" cy="4.5" r="4.5" stroke="none"/>
          <circle cx="4.5" cy="4.5" r="3.65" fill="none"/>
        </g>
      </g>
    </g>
    <g id="Mask_Group_1" data-name="Mask Group 1" clip-path="url(#clip-path)">
      <g id="Group_20" data-name="Group 20" transform="translate(-11 7.119)">
        <g id="Path_4-2" data-name="Path 4" transform="translate(51 494.46)" fill="#fff">
          <path d="M 22.39666557312012 14.01869964599609 L 22.39782905578613 13.31739044189453 L 23.00024604797363 13.06900596618652 L 23.84869194030762 13.42044353485107 L 22.39666557312012 14.01869964599609 Z M 2.623582124710083 12.54083251953125 C 2.775041580200195 9.709681510925293 3.650168418884277 6.959017753601074 5.076665878295898 4.882658958435059 C 6.340555667877197 3.04297924041748 8.665016174316406 0.8499991893768311 12.56124591827393 0.8499991893768311 C 14.15655612945557 0.8499991893768311 15.60769557952881 1.244209170341492 16.87435531616211 2.021669149398804 C 18.01873588562012 2.724069118499756 19.01740646362305 3.737579107284546 19.84265518188477 5.03403902053833 C 21.14564895629883 7.081056594848633 21.97504806518555 9.832345962524414 22.12509918212891 12.54034519195557 C 22.11043167114258 12.54012870788574 22.0955867767334 12.53991031646729 22.08056640625 12.53968906402588 C 21.51557540893555 12.53135871887207 20.70515632629395 12.52410888671875 19.67181587219238 12.51813888549805 C 17.75312614440918 12.50705909729004 15.17408561706543 12.5009593963623 12.4097957611084 12.5009593963623 C 9.617715835571289 12.5009593963623 7.014045715332031 12.50716876983643 5.078415870666504 12.51844882965088 C 4.035415649414063 12.52452945709229 3.219775915145874 12.53189945220947 2.654165744781494 12.54036903381348 C 2.643889904022217 12.54052352905273 2.633698225021362 12.54067707061768 2.623582124710083 12.54083251953125 Z" stroke="none"/>
          <path d="M 12.56124591827393 1.69999885559082 C 11.09540557861328 1.69999885559082 9.75860595703125 2.038928985595703 8.58796501159668 2.707379341125488 C 7.511816024780273 3.321868896484375 6.566156387329102 4.215679168701172 5.777256011962891 5.363979339599609 C 4.589010238647461 7.09354305267334 3.807920455932617 9.328825950622559 3.546720504760742 11.67978286743164 C 3.983049392700195 11.67562961578369 4.493230819702148 11.67184448242188 5.073455810546875 11.66845893859863 C 7.010696411132813 11.65717887878418 9.616115570068359 11.65095901489258 12.4097957611084 11.65095901489258 C 15.175705909729 11.65095901489258 17.75648498535156 11.65706920623779 19.67672538757324 11.66815948486328 C 20.25541305541992 11.67150020599365 20.76457023620605 11.6752462387085 21.20020294189453 11.67936038970947 C 20.94476890563965 9.417054176330566 20.20885848999023 7.192296028137207 19.12559509277344 5.490468978881836 C 17.52460479736328 2.975298881530762 15.31603622436523 1.69999885559082 12.56124591827393 1.69999885559082 M 12.56124591827393 -9.5367431640625e-07 C 19.97292327880859 -9.5367431640625e-07 22.99931716918945 7.733752250671387 22.99968528747559 13.41964530944824 C 22.95419692993164 13.37384986877441 17.68772506713867 13.35095882415771 12.40979480743408 13.35095882415771 C 7.085720062255859 13.35095882415771 1.749996185302734 13.37425899505615 1.749996185302734 13.42085933685303 C 1.749996185302734 7.263278961181641 5.149116516113281 -9.5367431640625e-07 12.56124591827393 -9.5367431640625e-07 Z M 22.99968528747559 13.41964530944824 C 23.00008392333984 13.42004585266113 23.00008964538574 13.42045497894287 22.99968528747559 13.42085933685303 C 22.99968528747559 13.42051219940186 22.99968528747559 13.41999244689941 22.99968528747559 13.41964530944824 Z" stroke="none" fill="#e1b72a"/>
        </g>
        <g id="Ellipse_4-2" data-name="Ellipse 4" transform="translate(58 484.881)" fill="#fff" stroke="#e1b72a" stroke-width="1.7">
          <circle cx="5.5" cy="5.5" r="5.5" stroke="none"/>
          <circle cx="5.5" cy="5.5" r="4.65" fill="none"/>
        </g>
      </g>
    </g>
    <g id="Rectangle_23" data-name="Rectangle 23" transform="translate(42 484)" fill="none" stroke="#e1b72a" stroke-width="2">
      <rect width="31" height="31" rx="5" stroke="none"/>
      <rect x="1" y="1" width="29" height="29" rx="4" fill="none"/>
    </g>
  </g>
</svg>
