<svg xmlns="http://www.w3.org/2000/svg" xmlns:xlink="http://www.w3.org/1999/xlink" width="31" height="31" viewBox="0 0 31 31">
  <defs>
    <clipPath id="clip-path">
      <rect id="Rectangle_22" data-name="Rectangle 22" width="31" height="31" rx="5" transform="translate(42 484)" fill="none" stroke="#717171" stroke-width="2"/>
    </clipPath>
  </defs>
  <g id="clients_list_c" data-name="clients list c" transform="translate(-42 -484)">
    <rect id="Rectangle_26" data-name="Rectangle 26" width="31" height="31" rx="5" transform="translate(42 484)" fill="#dfb529"/>
    <g id="Mask_Group_2" data-name="Mask Group 2" clip-path="url(#clip-path)">
      <g id="Group_19" data-name="Group 19" transform="translate(3 13.514)">
        <g id="Union_1" data-name="Union 1" transform="translate(2109.75 863.579)" fill="none">
          <path d="M-2039.75-360.095a0,0,0,0,1,0,0Zm-10,0a0,0,0,0,1,0,0Zm-7.249-.065c-6.157-.012-14,.01-14,.066,0-6.158,3.4-13.421,10.811-13.421a9.037,9.037,0,0,1,7.511,3.868,7.686,7.686,0,0,1,4.454-1.342c6.016,0,8.473,6.278,8.474,10.894-.04-.041-5.3-.06-10-.055,0,.018,0,.036,0,.055-.02-.021-1.164-.037-2.913-.049-2.487.009-4.336.025-4.336.05C-2057-360.116-2057-360.138-2057-360.16Z" stroke="none"/>
          <path d="M -2055.281005859375 -361.8292541503906 C -2054.589599609375 -361.8351135253906 -2053.714111328125 -361.8398742675781 -2052.669189453125 -361.8434753417969 L -2052.66064453125 -361.843505859375 L -2052.65234375 -361.8434448242188 C -2052.2119140625 -361.8406066894531 -2051.81787109375 -361.8374938964844 -2051.472412109375 -361.8341369628906 L -2051.472412109375 -361.8479614257813 L -2049.751953125 -361.8496398925781 C -2049.28662109375 -361.8500671386719 -2048.816162109375 -361.8503112792969 -2048.345458984375 -361.8503112792969 C -2046.099609375 -361.8503112792969 -2044.004150390625 -361.8453369140625 -2042.44482421875 -361.8363342285156 C -2042.128784179688 -361.8345031738281 -2041.838256835938 -361.8325500488281 -2041.57421875 -361.8304138183594 C -2041.809326171875 -363.4935302734375 -2042.367919921875 -365.1068420410156 -2043.1650390625 -366.359130859375 C -2044.402221679688 -368.3026428222656 -2046.104125976563 -369.2880859375 -2048.2236328125 -369.2880859375 C -2049.537109375 -369.2880859375 -2050.7109375 -368.9378356933594 -2051.71240234375 -368.2470092773438 L -2053.065185546875 -367.3138732910156 L -2054.043701171875 -368.6343688964844 C -2055.607177734375 -370.7444763183594 -2057.6748046875 -371.8143920898438 -2060.189208984375 -371.8143920898438 C -2061.65478515625 -371.8143920898438 -2062.991455078125 -371.4754943847656 -2064.162109375 -370.8070678710938 C -2065.23828125 -370.1925964355469 -2066.183837890625 -369.2987976074219 -2066.97265625 -368.1505432128906 C -2068.160888671875 -366.4209289550781 -2068.942138671875 -364.1854248046875 -2069.203369140625 -361.83447265625 C -2068.767333984375 -361.8385925292969 -2068.257568359375 -361.8423461914063 -2067.677734375 -361.845703125 C -2065.7412109375 -361.85693359375 -2063.13671875 -361.8631286621094 -2060.34375 -361.8631286621094 C -2059.210205078125 -361.8631286621094 -2058.076904296875 -361.8620910644531 -2056.995849609375 -361.8599853515625 L -2055.28076171875 -361.8566284179688 L -2055.281005859375 -361.8292541503906 M -2039.750122070313 -360.0935974121094 C -2039.750122070313 -360.0939025878906 -2039.750122070313 -360.0942687988281 -2039.750122070313 -360.0945739746094 C -2039.749877929688 -360.09423828125 -2039.749877929688 -360.0939331054688 -2039.750122070313 -360.0935974121094 Z M -2049.75 -360.0935974121094 C -2049.75 -360.0939636230469 -2049.75 -360.0944213867188 -2049.75 -360.0947875976563 C -2049.749755859375 -360.0943908691406 -2049.749755859375 -360.093994140625 -2049.75 -360.0935974121094 Z M -2056.99951171875 -360.0935974121094 C -2056.99951171875 -360.1155700683594 -2056.99951171875 -360.1380004882813 -2056.999267578125 -360.1599731445313 C -2058.079345703125 -360.1620788574219 -2059.211181640625 -360.1631164550781 -2060.34375 -360.1631164550781 C -2065.666748046875 -360.1631164550781 -2071 -360.1399536132813 -2071 -360.0935974121094 C -2071 -366.2514038085938 -2067.6005859375 -373.514404296875 -2060.189208984375 -373.514404296875 C -2056.82373046875 -373.514404296875 -2054.362060546875 -371.9197082519531 -2052.677734375 -369.6463928222656 C -2051.463134765625 -370.4841918945313 -2049.982421875 -370.9880981445313 -2048.2236328125 -370.9880981445313 C -2042.20751953125 -370.9880981445313 -2039.75048828125 -364.7096862792969 -2039.750122070313 -360.0945739746094 C -2039.7861328125 -360.1317443847656 -2044.06103515625 -360.1502990722656 -2048.345458984375 -360.1502990722656 C -2048.815673828125 -360.1502990722656 -2049.285400390625 -360.1500854492188 -2049.750244140625 -360.1496276855469 C -2049.75 -360.1311950683594 -2049.75 -360.1131591796875 -2049.75 -360.0947875976563 C -2049.77001953125 -360.1159362792969 -2050.914306640625 -360.1321411132813 -2052.663330078125 -360.1434936523438 C -2055.150146484375 -360.1349182128906 -2056.99951171875 -360.1183166503906 -2056.99951171875 -360.0935974121094 Z" stroke="none" fill="#fff"/>
        </g>
        <g id="Ellipse_4" data-name="Ellipse 4" transform="translate(57 484.486)" fill="none" stroke="#fff" stroke-width="1.7">
          <circle cx="4.5" cy="4.5" r="4.5" stroke="none"/>
          <circle cx="4.5" cy="4.5" r="3.65" fill="none"/>
        </g>
      </g>
    </g>
    <g id="Mask_Group_1" data-name="Mask Group 1" clip-path="url(#clip-path)">
      <g id="Group_20" data-name="Group 20" transform="translate(-11 9.119)">
        <g id="Path_4" data-name="Path 4" transform="translate(51 494.46)" fill="none">
          <path d="M12.561,0C19.973,0,23,7.735,23,13.421c.093-.093-21.25-.093-21.25,0C1.75,7.263,5.149,0,12.561,0Z" stroke="none"/>
          <path d="M 12.56124591827393 1.69999885559082 C 11.09540557861328 1.69999885559082 9.75860595703125 2.038928985595703 8.58796501159668 2.707379341125488 C 7.511816024780273 3.321868896484375 6.566156387329102 4.215679168701172 5.777256011962891 5.363979339599609 C 4.589010238647461 7.09354305267334 3.807920455932617 9.328825950622559 3.546720504760742 11.67978286743164 C 3.983049392700195 11.67562961578369 4.493230819702148 11.67184448242188 5.073455810546875 11.66845893859863 C 7.010696411132813 11.65717887878418 9.616115570068359 11.65095901489258 12.4097957611084 11.65095901489258 C 15.175705909729 11.65095901489258 17.75648498535156 11.65706920623779 19.67672538757324 11.66815948486328 C 20.25541305541992 11.67150020599365 20.76457023620605 11.6752462387085 21.20020294189453 11.67936038970947 C 20.94476890563965 9.417054176330566 20.20885848999023 7.192296028137207 19.12559509277344 5.490468978881836 C 17.52460479736328 2.975298881530762 15.31603622436523 1.69999885559082 12.56124591827393 1.69999885559082 M 12.56124591827393 -9.5367431640625e-07 C 19.97292327880859 -9.5367431640625e-07 22.99931716918945 7.733752250671387 22.99968528747559 13.41964530944824 C 22.95419692993164 13.37384986877441 17.68772506713867 13.35095882415771 12.40979480743408 13.35095882415771 C 7.085720062255859 13.35095882415771 1.749996185302734 13.37425899505615 1.749996185302734 13.42085933685303 C 1.749996185302734 7.263278961181641 5.149116516113281 -9.5367431640625e-07 12.56124591827393 -9.5367431640625e-07 Z M 22.99968528747559 13.41964530944824 C 23.00008392333984 13.42004585266113 23.00008964538574 13.42045497894287 22.99968528747559 13.42085933685303 C 22.99968528747559 13.42051219940186 22.99968528747559 13.41999244689941 22.99968528747559 13.41964530944824 Z" stroke="none" fill="#fff"/>
        </g>
        <g id="Ellipse_4-2" data-name="Ellipse 4" transform="translate(58 484.881)" fill="none" stroke="#fff" stroke-width="1.7">
          <circle cx="5.5" cy="5.5" r="5.5" stroke="none"/>
          <circle cx="5.5" cy="5.5" r="4.65" fill="none"/>
        </g>
      </g>
    </g>
  </g>
</svg>
