<svg xmlns="http://www.w3.org/2000/svg" width="27.043" height="27.042" viewBox="0 0 27.043 27.042">
  <g id="edit_c_white" data-name="edit c white" transform="translate(0 -0.004)">
    <g id="Group_23" data-name="Group 23" transform="translate(0 1.935)">
      <g id="Group_22" data-name="Group 22">
        <path id="Path_6" data-name="Path 6" d="M22.213,45.727a.966.966,0,0,0-.966.966V56.35a.966.966,0,0,1-.966.966H2.9a.966.966,0,0,1-.966-.966V37.034a.966.966,0,0,1,.966-.966h11.59a.966.966,0,1,0,0-1.932H2.9a2.9,2.9,0,0,0-2.9,2.9V56.35a2.9,2.9,0,0,0,2.9,2.9H20.282a2.9,2.9,0,0,0,2.9-2.9V46.692A.966.966,0,0,0,22.213,45.727Z" transform="translate(0 -34.137)" fill="#fff"/>
      </g>
    </g>
    <g id="Group_25" data-name="Group 25" transform="translate(5.795 0.004)">
      <g id="Group_24" data-name="Group 24">
        <path id="Path_7" data-name="Path 7" d="M122.573,1.087a3.7,3.7,0,0,0-5.229,0l-12.722,12.72a.976.976,0,0,0-.233.378l-1.932,5.795a.966.966,0,0,0,.916,1.271.981.981,0,0,0,.305-.049l5.795-1.932a.966.966,0,0,0,.378-.234L122.573,6.315A3.7,3.7,0,0,0,122.573,1.087Z" transform="translate(-102.409 -0.004)" fill="#fff"/>
      </g>
    </g>
  </g>
</svg>
