<?xml version="1.0"?>
<svg xmlns="http://www.w3.org/2000/svg" xmlns:xlink="http://www.w3.org/1999/xlink" xmlns:svgjs="http://svgjs.com/svgjs" version="1.1" width="512" height="512" x="0" y="0" viewBox="0 0 435.2 435.2" style="enable-background:new 0 0 512 512" xml:space="preserve" class=""><g>
<g xmlns="http://www.w3.org/2000/svg">
	<g>
		<g>
			<path d="M246.335,67.918h-57.469c-11.542,0-20.898,9.356-20.898,20.898s9.356,20.898,20.898,20.898h57.469     c11.542,0,20.898-9.356,20.898-20.898S257.876,67.918,246.335,67.918z" fill="#ffffff" data-original="#000000" style="" class=""/>
			<path d="M175.804,387.657l40.751,47.543l35.527-30.302l-21.943-24.555c-2.1-2.055-3.238-4.9-3.135-7.837     c0.231-2.818,1.541-5.439,3.657-7.314l23.51-17.763v-28.735l-20.375-24.033c-1.328-2.384-1.877-5.125-1.567-7.837     c0.231-2.818,1.541-5.439,3.657-7.314l18.286-15.151v-65.829h-78.367V387.657z" fill="#ffffff" data-original="#000000" style="" class=""/>
			<path d="M293.878,0H141.322c-28.735,0-54.335,22.465-54.335,51.2v74.71c0.848,29.106,24.694,52.257,53.812,52.245h164.571     c23.458,0.002,42.555-18.862,42.841-42.318V51.2C348.212,22.465,322.612,0,293.878,0z M246.335,130.612h-57.469     c-23.083,0-41.796-18.713-41.796-41.796s18.713-41.796,41.796-41.796h57.469c23.083,0,41.796,18.713,41.796,41.796     S269.418,130.612,246.335,130.612z" fill="#ffffff" data-original="#000000" style="" class=""/>
		</g>
	</g>
</g>
<g xmlns="http://www.w3.org/2000/svg">
</g>
<g xmlns="http://www.w3.org/2000/svg">
</g>
<g xmlns="http://www.w3.org/2000/svg">
</g>
<g xmlns="http://www.w3.org/2000/svg">
</g>
<g xmlns="http://www.w3.org/2000/svg">
</g>
<g xmlns="http://www.w3.org/2000/svg">
</g>
<g xmlns="http://www.w3.org/2000/svg">
</g>
<g xmlns="http://www.w3.org/2000/svg">
</g>
<g xmlns="http://www.w3.org/2000/svg">
</g>
<g xmlns="http://www.w3.org/2000/svg">
</g>
<g xmlns="http://www.w3.org/2000/svg">
</g>
<g xmlns="http://www.w3.org/2000/svg">
</g>
<g xmlns="http://www.w3.org/2000/svg">
</g>
<g xmlns="http://www.w3.org/2000/svg">
</g>
<g xmlns="http://www.w3.org/2000/svg">
</g>
</g></svg>
