<?xml version="1.0"?>
<svg xmlns="http://www.w3.org/2000/svg" width="512px" height="512px" viewBox="0 0 128 128" class=""><g><g><path d="M85.333,28.583a1.749,1.749,0,0,0,1.75-1.75V16.583a1.75,1.75,0,0,0-3.5,0v10.25A1.749,1.749,0,0,0,85.333,28.583Z" data-original="#000000" class="active-path" data-old_color="#000000" fill="#FFFFFF"/><path d="M115.5,42.35h-9.94V18a1.751,1.751,0,0,0-1.75-1.75H93.08V6.5a1.75,1.75,0,0,0-1.75-1.75H36.67A1.75,1.75,0,0,0,34.92,6.5v9.75H24.19A1.751,1.751,0,0,0,22.44,18V42.35H12.5A7.759,7.759,0,0,0,4.75,50.1V97.81a7.759,7.759,0,0,0,7.75,7.75H34.917V121.5a1.75,1.75,0,0,0,1.75,1.75H91.333a1.75,1.75,0,0,0,1.75-1.75V105.56H115.5a7.759,7.759,0,0,0,7.75-7.75V50.1A7.759,7.759,0,0,0,115.5,42.35Zm-13.44-22.6v22.6H93.08V19.75ZM38.42,8.25H89.58v34.1H38.42ZM25.94,19.75h8.98v22.6H25.94Zm0,82.31V84.25h8.977v17.81Zm12.477,17.69V84.25H89.583s0,19.55,0,19.56,0,15.94,0,15.94Zm54.666-17.69V84.25h8.977v17.81Zm26.667-4.25a4.255,4.255,0,0,1-4.25,4.25h-9.94V82.5a1.751,1.751,0,0,0-1.75-1.75H24.19a1.751,1.751,0,0,0-1.75,1.75v19.56H12.5a4.255,4.255,0,0,1-4.25-4.25V50.1a4.255,4.255,0,0,1,4.25-4.25h103a4.255,4.255,0,0,1,4.25,4.25Z" data-original="#000000" class="active-path" data-old_color="#000000" fill="#FFFFFF"/><path d="M40.333,54.346H15.5a1.75,1.75,0,0,0,0,3.5H40.333a1.75,1.75,0,0,0,0-3.5Z" data-original="#000000" class="active-path" data-old_color="#000000" fill="#FFFFFF"/><path d="M79,89.25H49a1.75,1.75,0,0,0,0,3.5H79a1.75,1.75,0,0,0,0-3.5Z" data-original="#000000" class="active-path" data-old_color="#000000" fill="#FFFFFF"/><path d="M79,98.25H49a1.75,1.75,0,0,0,0,3.5H79a1.75,1.75,0,0,0,0-3.5Z" data-original="#000000" class="active-path" data-old_color="#000000" fill="#FFFFFF"/><path d="M79,107.25H49a1.75,1.75,0,0,0,0,3.5H79a1.75,1.75,0,0,0,0-3.5Z" data-original="#000000" class="active-path" data-old_color="#000000" fill="#FFFFFF"/><path d="M109.5,51.346a4.75,4.75,0,1,0,4.75,4.75A4.756,4.756,0,0,0,109.5,51.346Zm0,6a1.25,1.25,0,1,1,1.25-1.25A1.251,1.251,0,0,1,109.5,57.346Z" data-original="#000000" class="active-path" data-old_color="#000000" fill="#FFFFFF"/><path d="M97.625,51.346a4.75,4.75,0,1,0,4.75,4.75A4.756,4.756,0,0,0,97.625,51.346Zm0,6a1.25,1.25,0,1,1,1.25-1.25A1.251,1.251,0,0,1,97.625,57.346Z" data-original="#000000" class="active-path" data-old_color="#000000" fill="#FFFFFF"/><path d="M85.75,51.346A4.75,4.75,0,1,0,90.5,56.1,4.756,4.756,0,0,0,85.75,51.346Zm0,6A1.25,1.25,0,1,1,87,56.1,1.251,1.251,0,0,1,85.75,57.346Z" data-original="#000000" class="active-path" data-old_color="#000000" fill="#FFFFFF"/></g></g> </svg>
